<svg id="visual" viewBox="0 0 960 540" width="960" height="540" xmlns="http://www.w3.org/2000/svg" xmlns:xlink="http://www.w3.org/1999/xlink" version="1.1"><path d="M0 77L22.8 81.5C45.7 86 91.3 95 137 98.7C182.7 102.3 228.3 100.7 274 97.3C319.7 94 365.3 89 411.2 83.8C457 78.7 503 73.3 548.8 68.2C594.7 63 640.3 58 686 60.2C731.7 62.3 777.3 71.7 823 81.3C868.7 91 914.3 101 937.2 106L960 111L960 0L937.2 0C914.3 0 868.7 0 823 0C777.3 0 731.7 0 686 0C640.3 0 594.7 0 548.8 0C503 0 457 0 411.2 0C365.3 0 319.7 0 274 0C228.3 0 182.7 0 137 0C91.3 0 45.7 0 22.8 0L0 0Z" fill="#0066FF" stroke-linecap="round" stroke-linejoin="miter"></path></svg>