<svg id="visual" viewBox="0 0 960 540" width="960" height="540" xmlns="http://www.w3.org/2000/svg" xmlns:xlink="http://www.w3.org/1999/xlink" version="1.1"><path d="M0 461L22.8 456.5C45.7 452 91.3 443 137 439.3C182.7 435.7 228.3 437.3 274 440.7C319.7 444 365.3 449 411.2 454.2C457 459.3 503 464.7 548.8 469.8C594.7 475 640.3 480 686 477.8C731.7 475.7 777.3 466.3 823 456.7C868.7 447 914.3 437 937.2 432L960 427L960 541L937.2 541C914.3 541 868.7 541 823 541C777.3 541 731.7 541 686 541C640.3 541 594.7 541 548.8 541C503 541 457 541 411.2 541C365.3 541 319.7 541 274 541C228.3 541 182.7 541 137 541C91.3 541 45.7 541 22.8 541L0 541Z" fill="#0066FF" stroke-linecap="round" stroke-linejoin="miter"></path></svg>